<svg viewBox="0 0 512 512" xmlns="http://www.w3.org/2000/svg">
  <g fill="none" stroke="white" stroke-width="2.5" stroke-linecap="round" stroke-linejoin="round">

    <!-- Libro abierto -->
    <path d="M40 120 Q154 60 256 120 Q362 60 472 120"></path>
    <path d="M40 120 V360 Q150 300 256 360 Q362 300 472 360 V120"></path>
    <line x1="256" y1="120" x2="256" y2="360"></line>

    <!-- NUEVAS capas superiores (encima del texto) -->
    <path d="M70 180 Q150 150 240 180"></path>
    <path d="M80 200 Q150 170 240 200"></path>
    <path d="M90 220 Q150 190 240 220"></path>

    <path d="M272 180 Q362 150 442 180"></path>
    <path d="M272 200 Q362 170 432 200"></path>
    <path d="M272 220 Q362 190 422 220"></path>

    <!-- Capas de páginas originales -->
    <path d="M60 300 Q150 250 240 300"></path>
    <path d="M70 320 Q150 280 240 320"></path>
    <path d="M80 340 Q150 310 240 340"></path>

    <path d="M272 300 Q362 250 452 304"></path>
    <path d="M272 320 Q362 280 442 320"></path>
    <path d="M272 340 Q362 310 432 340"></path>
    <path d="M275 340 Q362 310 432 340"></path>

    <!-- Bordes libro -->
    <line x1="40" y1="120" x2="40" y2="360"></line>
    <line x1="472" y1="120" x2="472" y2="364"></line>

    <!-- Cuadro calendario -->
    <rect x="206" y="40" width="100" height="80" rx="8"></rect>
    <line x1="206" y1="65" x2="306" y2="65"></line>

    <!-- Cachos calendario -->
    <line x1="230" y1="40" x2="230" y2="25"></line>
    <line x1="282" y1="40" x2="282" y2="25"></line>

    <!-- Cuadrícula calendario -->
    <line x1="206" y1="85" x2="306" y2="85"></line>
    <line x1="206" y1="105" x2="306" y2="105"></line>

    <line x1="226" y1="65" x2="226" y2="118"></line>
    <line x1="246" y1="65" x2="246" y2="118"></line>
    <line x1="266" y1="65" x2="266" y2="118"></line>
    <line x1="286" y1="65" x2="286" y2="118"></line>

    <!-- Check -->
    <circle cx="320" cy="100" r="15"></circle>
    <path d="M312 100 L318 106 L328 94"></path>

    <!-- Texto dividido -->
    <text x="160" y="240" text-anchor="middle" font-size="36" fill="white" font-family="serif">
      OLE
    </text>

    <text x="352" y="240" text-anchor="middle" font-size="36" fill="white" font-family="serif">
      CRAM
    </text>

    <!-- Líneas decorativas -->
    <line x1="120" y1="255" x2="200" y2="255"></line>
    <line x1="312" y1="255" x2="395" y2="255"></line>

  </g>
</svg>